<?xml version="1.0" encoding="utf-8"?>
<!-- Generator: Adobe Illustrator 16.0.0, SVG Export Plug-In . SVG Version: 6.00 Build 0)  -->
<!DOCTYPE svg PUBLIC "-//W3C//DTD SVG 1.1//EN" "http://www.w3.org/Graphics/SVG/1.1/DTD/svg11.dtd">
<svg version="1.1" id="Layer_1" xmlns="http://www.w3.org/2000/svg" xmlns:xlink="http://www.w3.org/1999/xlink" x="0px" y="0px"
	 width="406.047px" height="130.029px" viewBox="0 0 406.047 130.029" enable-background="new 0 0 406.047 130.029"
	 xml:space="preserve">
<polygon fill="#8641F2" points="103.146,84.322 99.479,47.322 72.451,30.299 55.36,26.177 39.668,17.338 40.227,42.564 
	36.414,39.051 17.961,16.59 22.146,40.988 29.444,62.166 19.812,53.489 28.312,81.822 40.604,97.166 72.812,109.989 "/>
<polygon fill="#4A388E" points="68.862,100.545 92.524,80.129 80.381,76.613 65.944,56.051 40.323,58.027 42.224,83.834 "/>
<polygon fill="#9871E2" points="65.944,56.051 53.818,78.238 80.318,76.426 "/>
<polygon fill="#CC98F4" points="65.255,38.91 40.323,58.027 90.687,54.318 "/>
<polygon fill="#17283F" points="68.987,100.537 69.328,83.33 80.507,76.338 53.604,78.121 42.224,83.834 "/>
<polygon fill="#EBBBF2" points="65.252,38.881 66.038,56.133 90.687,54.318 "/>
<polygon fill="#CC98F4" points="90.63,53.799 79.944,76.488 92.507,80.426 "/>
<polygon fill="#B694ED" points="90.595,54.324 66.038,56.133 80.318,76.426 "/>
<polygon fill="#113C68" points="40.449,58.496 53.825,78.205 42.224,83.834 "/>
<polygon fill="#113C68" points="68.974,100.354 80.318,76.426 53.816,78.09 "/>
<g enable-background="new    ">
	<path fill="#FFFFFF" d="M138.679,54.714l-3.611-6.83h-0.141l-4.653,0.011l0.016,6.838l-6.45,0.015l-0.057-24.709l11.103-0.025
		c6.556-0.015,10.3,3.149,10.312,8.647c0.009,3.736-1.537,6.49-4.388,7.977l5.165,8.06L138.679,54.714z M130.262,42.748l4.688-0.011
		c2.608-0.006,4.121-1.348,4.115-3.851c-0.006-2.433-1.524-3.733-4.133-3.728l-4.688,0.011L130.262,42.748z"/>
	<path fill="#FFFFFF" d="M170.121,38.602c0.013,5.816-3.609,9.209-9.919,9.224l-4.406,0.01l0.016,6.838l-6.45,0.015l-0.057-24.709
		l10.856-0.024C166.471,29.94,170.108,33.104,170.121,38.602z M155.767,35.111l0.018,7.578l4.089-0.009
		c2.608-0.007,4.121-1.349,4.115-3.852c-0.006-2.433-1.524-3.733-4.133-3.727L155.767,35.111z"/>
	<path fill="#FFFFFF" d="M189.659,41.976l5.569-0.013l0.022,9.729c-2.64,1.84-6.831,3.188-10.285,3.197
		c-7.543,0.017-13.231-5.398-13.248-12.589s5.787-12.562,13.612-12.579c3.701-0.009,7.617,1.393,10.16,3.643l-3.656,4.52
		c-1.766-1.653-4.271-2.705-6.527-2.699c-3.983,0.009-6.972,3.082-6.963,7.101c0.009,4.054,3.048,7.113,7.066,7.104
		c1.234-0.002,2.784-0.429,4.262-1.173L189.659,41.976z"/>
</g>
<g enable-background="new    ">
	<path fill="#8641F2" d="M124.207,108.147c-0.61-0.314-1.116-0.742-1.518-1.283c-0.402-0.542-0.748-1.13-1.037-1.766
		c-0.287-0.635-0.537-1.303-0.749-2.008c-0.211-0.705-0.43-1.378-0.656-2.019c-0.054-0.573,0.029-1.006,0.25-1.296
		c0.221-0.289,0.464-0.572,0.727-0.845c0.981-0.134,1.855-0.3,2.623-0.496c0.767-0.196,1.515-0.392,2.241-0.585
		c0.727-0.192,1.455-0.375,2.184-0.548c0.729-0.171,1.523-0.298,2.385-0.38c0.495-1.33,0.953-2.604,1.376-3.824
		c0.422-1.219,0.83-2.385,1.221-3.498c0.149-1.049,0.376-2.032,0.683-2.952c0.307-0.917,0.606-1.796,0.9-2.63
		c0.293-0.835,0.545-1.666,0.757-2.494c0.211-0.825,0.315-1.693,0.312-2.604c0.357-1.481,0.672-2.847,0.948-4.094
		c0.275-1.247,0.436-2.72,0.482-4.423c-1.536,0.395-2.765,0.748-3.687,1.062c-0.923,0.314-1.579,0.594-1.969,0.838
		c-0.825,0.038-1.486-0.066-1.985-0.309s-0.912-0.555-1.236-0.938c-0.327-0.383-0.617-0.831-0.873-1.345
		c-0.256-0.514-0.555-1.045-0.896-1.592c0.129-0.386,0.118-0.933-0.031-1.643c-0.15-0.71-0.446-1.209-0.887-1.5
		c0.32-0.112,0.54-0.413,0.66-0.901c0.119-0.486,0.106-0.848-0.04-1.082c0.677-0.271,1.402-0.475,2.176-0.608
		c0.773-0.136,1.537-0.271,2.29-0.403c0.752-0.134,1.473-0.285,2.162-0.453c0.687-0.168,1.262-0.44,1.723-0.815
		c2.125-0.284,4.342-0.576,6.653-0.877c2.309-0.301,4.443-0.606,6.4-0.916c0.762,0.177,1.625,0.219,2.589,0.128
		c0.963-0.091,1.933-0.121,2.91-0.088c0.975,0.032,1.861,0.217,2.66,0.556c0.797,0.338,1.388,1.008,1.772,2.005
		c0.623,0.025,1.1,0.144,1.431,0.361c0.331,0.217,0.553,0.497,0.668,0.837c0.115,0.341,0.183,0.727,0.203,1.16
		c0.02,0.433,0.049,0.854,0.088,1.265c-0.61,0.554-1.403,1.032-2.379,1.434c-0.976,0.403-2.05,0.753-3.222,1.05
		c-1.173,0.298-2.401,0.538-3.688,0.722c-1.286,0.184-2.543,0.355-3.77,0.512c-0.078,1.373-0.286,2.996-0.626,4.87
		s-0.695,3.707-1.062,5.501c-0.369,1.795-0.683,3.396-0.942,4.808c-0.26,1.411-0.35,2.321-0.27,2.726
		c-0.321,0.982-0.584,1.815-0.789,2.496c-0.205,0.682-0.393,1.32-0.563,1.915c-0.171,0.597-0.344,1.182-0.517,1.757
		c-0.174,0.574-0.391,1.227-0.653,1.955l4.184-0.396c0.125,0.443,0.338,0.734,0.642,0.87c0.302,0.137,0.623,0.252,0.963,0.344
		s0.652,0.219,0.937,0.378c0.283,0.158,0.445,0.444,0.483,0.854c0.798,0.132,1.32,0.393,1.564,0.784
		c0.243,0.391,0.336,0.828,0.279,1.308c-0.059,0.481-0.218,0.982-0.479,1.505c-0.261,0.521-0.518,0.98-0.771,1.376
		c-0.376-0.047-0.717,0.077-1.019,0.376c-0.304,0.298-0.583,0.624-0.839,0.979c-1.205-0.051-2.376,0.039-3.513,0.271
		c-1.137,0.231-2.194,0.435-3.171,0.61c-0.202,0.061-0.272,0.18-0.213,0.361c0.057,0.181,0.03,0.318-0.085,0.412
		c-1.311-0.291-2.629-0.331-3.954-0.124c-1.326,0.209-2.662,0.531-4.006,0.97c-1.346,0.437-2.72,0.898-4.122,1.381
		C127.117,107.634,125.68,107.968,124.207,108.147z"/>
	<path fill="#8641F2" d="M166.169,97.6c-0.379,0.368-0.586,0.812-0.619,1.332c-0.034,0.521-0.088,1.033-0.165,1.537
		c-0.077,0.502-0.252,0.945-0.527,1.322c-0.274,0.377-0.804,0.583-1.587,0.615c-0.145,0.222-0.164,0.347-0.058,0.378
		s0.216,0.207,0.33,0.527c-0.583-0.027-0.988,0.054-1.219,0.239c-0.23,0.188-0.526,0.34-0.887,0.457
		c-0.972-0.197-1.811-0.646-2.518-1.345c-0.708-0.698-1.341-1.478-1.897-2.335c-0.557-0.857-1.056-1.742-1.492-2.652
		c-0.438-0.91-0.875-1.697-1.31-2.36c-0.016-0.163,0.05-0.242,0.195-0.235c0.146,0.007,0.28,0.004,0.403-0.008
		c-0.243-0.389-0.441-0.837-0.592-1.341c-0.15-0.503-0.385-0.904-0.704-1.205c0.95-2.657,1.97-5.433,3.062-8.329
		c1.092-2.896,2.189-5.834,3.294-8.816c1.105-2.98,2.207-5.982,3.309-9.004c1.101-3.022,2.155-5.987,3.163-8.897
		c1.188,0.301,2.351,0.678,3.491,1.128c1.138,0.452,2.194,1.003,3.167,1.656c0.972,0.653,1.821,1.432,2.548,2.335
		s1.251,1.961,1.573,3.173c-0.06,0.254-0.154,0.346-0.285,0.275s-0.23-0.02-0.296,0.151c0.228,0.228,0.357,0.392,0.387,0.491
		c0.03,0.102,0.029,0.205-0.001,0.311c-0.032,0.107-0.04,0.242-0.024,0.406s0.139,0.381,0.372,0.646
		c-0.209-0.021-0.35,0.023-0.422,0.134c-0.073,0.109-0.215,0.134-0.428,0.071c0.259,0.556,0.364,1,0.313,1.337
		c-0.052,0.336-0.146,0.645-0.285,0.926c-0.139,0.283-0.246,0.583-0.319,0.899c-0.074,0.318-0.003,0.736,0.212,1.254
		c-0.165,0.016-0.274,0.057-0.33,0.123c-0.056,0.068-0.101,0.145-0.134,0.229c-0.033,0.087-0.078,0.163-0.133,0.23
		c-0.056,0.067-0.168,0.089-0.336,0.062c0.225,1.056,0.366,2.129,0.429,3.219c0.062,1.092,0.124,2.203,0.19,3.335
		c0.065,1.132,0.175,2.291,0.329,3.476c0.153,1.188,0.434,2.401,0.841,3.646c1.666-1.192,2.966-2.661,3.898-4.403
		c0.931-1.744,1.621-3.65,2.067-5.722c0.446-2.069,0.734-4.27,0.866-6.601c0.131-2.328,0.27-4.701,0.414-7.116
		c0.409-0.494,0.715-1.08,0.92-1.763c0.204-0.681,0.366-1.379,0.485-2.094c0.119-0.715,0.236-1.439,0.353-2.175
		c0.117-0.734,0.312-1.405,0.586-2.01c0.747,0.012,1.391,0.168,1.938,0.468c0.545,0.3,1.064,0.645,1.556,1.033
		c0.492,0.388,1.002,0.744,1.528,1.066c0.528,0.322,1.166,0.51,1.916,0.563c0.651,0.767,1.26,1.506,1.824,2.218
		c0.563,0.712,0.972,1.532,1.226,2.46c-0.207,0.435-0.349,0.902-0.426,1.407c-0.077,0.504-0.164,1.008-0.261,1.514
		c-0.098,0.506-0.249,0.977-0.457,1.409s-0.523,0.815-0.947,1.145c-0.007,1.243-0.083,2.408-0.229,3.499
		c-0.145,1.09-0.272,2.158-0.38,3.201c-0.109,1.046-0.192,2.13-0.251,3.253c-0.06,1.122-0.007,2.339,0.158,3.647
		c-0.256,1.225-0.552,2.483-0.885,3.776c-0.333,1.296-0.551,2.483-0.656,3.569c-0.721,0.689-1.264,1.507-1.63,2.452
		c-0.366,0.944-0.751,1.893-1.159,2.841c-0.19,0.184-0.31,0.227-0.36,0.127c-0.051-0.098-0.242-0.153-0.574-0.163
		c0.075,0.366,0.027,0.609-0.148,0.729c-0.175,0.12-0.137,0.416,0.115,0.889c-0.667,0.396-1.242,0.885-1.724,1.466
		c-0.483,0.585-1.021,1.133-1.614,1.643c-0.594,0.513-1.304,0.881-2.131,1.102c-0.827,0.225-1.941,0.152-3.342-0.211
		c-2.149-1.287-4.115-2.818-5.896-4.596c-1.782-1.776-3.27-3.933-4.46-6.469c-0.399,0.162-0.682,0.458-0.848,0.888
		c-0.167,0.43-0.311,0.878-0.432,1.345c-0.122,0.467-0.248,0.892-0.376,1.276c-0.13,0.384-0.358,0.592-0.686,0.622
		c-0.048,0.379-0.169,0.73-0.365,1.061c-0.197,0.328-0.383,0.656-0.56,0.984c-0.176,0.326-0.298,0.68-0.365,1.059
		C165.832,96.764,165.921,97.169,166.169,97.6z"/>
	<path fill="#8641F2" d="M196.889,72.536c0.065-0.629,0.1-1.137,0.104-1.531c0.003-0.395-0.179-0.801-0.55-1.222
		c0.101-0.671,0.187-1.196,0.254-1.575c0.067-0.379,0.029-0.893-0.114-1.541c0.268-1.102,0.746-2.057,1.436-2.867
		c0.688-0.81,1.46-1.514,2.314-2.113c0.853-0.597,1.757-1.117,2.708-1.56c0.952-0.44,1.847-0.827,2.685-1.154
		c-0.016-0.163-0.105-0.238-0.27-0.223c-0.164,0.016-0.215-0.082-0.152-0.296c2.178-0.619,4.346-1.424,6.508-2.415
		s4.383-1.904,6.663-2.741c2.28-0.836,4.644-1.441,7.092-1.818c2.447-0.376,5.062-0.302,7.843,0.22
		c0.21,0.478,0.48,0.928,0.811,1.352c0.329,0.425,0.668,0.837,1.017,1.239c0.349,0.401,0.665,0.796,0.95,1.182
		c0.285,0.387,0.469,0.804,0.553,1.251c0.535,0.406,0.98,0.85,1.336,1.332c0.357,0.486,0.473,1.167,0.35,2.048
		c-0.421,0.372-0.861,0.744-1.322,1.118c-0.461,0.375-0.945,0.732-1.451,1.068c-1.889-0.276-3.75-0.266-5.584,0.031
		s-3.482,0.598-4.943,0.902c-0.498-0.45-1.053-0.634-1.666-0.557c-0.613,0.08-1.25,0.243-1.91,0.491
		c-0.659,0.25-1.309,0.497-1.947,0.743c-0.639,0.247-1.25,0.357-1.831,0.329c-0.413,0.453-0.981,0.786-1.706,0.999
		c-0.725,0.214-1.494,0.399-2.306,0.56c-0.022,0.21,0.032,0.349,0.163,0.419c0.131,0.071,0.167,0.232,0.108,0.487
		c0.321,0.342,0.735,0.561,1.241,0.658s1.021,0.183,1.546,0.257c0.524,0.075,1.002,0.207,1.435,0.393
		c0.43,0.187,0.731,0.521,0.9,1.001c0.742-0.028,1.396,0.107,1.963,0.404c0.566,0.299,1.057,0.677,1.474,1.134
		c0.415,0.456,0.731,0.954,0.947,1.493s0.325,1.036,0.327,1.491c0.202,0.395,0.393,0.542,0.57,0.441
		c0.177-0.099,0.401-0.017,0.675,0.247c0.222,0.6,0.662,1.21,1.321,1.83c0.658,0.621,1.188,1.307,1.592,2.055
		c0.197,1.223,0.374,2.322,0.529,3.301c0.154,0.979,0.07,1.961-0.25,2.942c-0.527,1.872-1.379,3.586-2.557,5.146
		c-1.177,1.561-2.544,2.962-4.103,4.206c-1.559,1.243-3.224,2.353-4.993,3.327c-1.771,0.975-3.533,1.814-5.287,2.518
		c-0.168-0.026-0.364-0.008-0.585,0.055c-0.222,0.062-0.284-0.055-0.188-0.354c-0.338,0.361-0.74,0.607-1.203,0.734
		c-0.465,0.126-0.975,0.206-1.529,0.238c-0.557,0.03-1.112,0.051-1.67,0.063c-0.559,0.011-1.1,0.083-1.625,0.216
		c-0.36-0.298-0.688-0.598-0.985-0.9c-0.298-0.303-0.551-0.671-0.756-1.107c-0.21-0.021-0.315-0.146-0.315-0.373
		c-0.001-0.228-0.104-0.332-0.309-0.312c-0.016-0.164-0.008-0.289,0.026-0.375c0.033-0.086,0.066-0.172,0.1-0.258
		c0.152-0.14,0.215-0.238,0.189-0.298c-0.027-0.06-0.094-0.115-0.202-0.167c-0.108-0.053-0.219-0.113-0.328-0.186
		c-0.111-0.072-0.151-0.172-0.122-0.301c0.17-0.389,0.201-0.834,0.09-1.344c-0.11-0.506-0.211-1.023-0.302-1.553
		c-0.092-0.529-0.098-1.035-0.019-1.52c0.078-0.482,0.388-0.916,0.932-1.299c1.698,0.006,3.279-0.227,4.746-0.696
		c1.466-0.469,2.839-1.054,4.118-1.756c1.278-0.699,2.49-1.445,3.637-2.237c1.146-0.791,2.266-1.527,3.361-2.211
		c0.084-0.421,0.245-0.787,0.485-1.102c0.239-0.312,0.49-0.614,0.753-0.908c0.26-0.293,0.501-0.607,0.717-0.937
		c0.219-0.332,0.366-0.729,0.447-1.191c0.025-0.167,0.014-0.29-0.035-0.369c-0.049-0.078-0.117-0.145-0.205-0.198
		s-0.176-0.117-0.267-0.191s-0.143-0.193-0.158-0.358c-0.126-0.027-0.243-0.06-0.35-0.091s-0.2-0.043-0.282-0.035
		c-1.117-0.432-2.289-0.776-3.512-1.034c-1.227-0.257-2.27-0.571-3.132-0.946c-0.462,0.377-0.946,0.505-1.454,0.387
		c-0.508-0.117-1.117-0.226-1.83-0.324c-1.73,0.082-3.377,0.071-4.938-0.029c-1.562-0.1-3.09-0.391-4.583-0.871
		c-0.106-0.238-0.229-0.443-0.369-0.617c-0.14-0.173-0.433-0.196-0.875-0.072c-0.327-0.381-0.659-0.733-1-1.054
		C197.493,73.338,197.179,72.964,196.889,72.536z"/>
	<path fill="#8641F2" d="M235.529,79.375c0.024-0.167,0.109-0.249,0.256-0.242c0.145,0.008,0.277-0.016,0.396-0.067
		c-0.359-0.298-0.605-0.719-0.739-1.266c-0.136-0.546-0.384-0.988-0.747-1.326c0.063-0.213,0.115-0.424,0.158-0.637
		c0.041-0.211,0.208-0.308,0.5-0.294c-0.209-0.891-0.268-1.733-0.178-2.529c0.09-0.794,0.277-1.556,0.56-2.288
		c0.282-0.729,0.628-1.455,1.036-2.176c0.406-0.723,0.804-1.453,1.189-2.193c0.361-0.117,0.59-0.107,0.686,0.028
		c0.096,0.137,0.236,0.092,0.422-0.134c0.613-0.512,1.018-1.059,1.212-1.635c0.192-0.578,0.259-1.194,0.196-1.85
		c0.27-1.101,0.59-2.198,0.963-3.287c0.372-1.091,0.824-2.117,1.354-3.078c0.531-0.959,1.111-1.812,1.746-2.554
		c0.633-0.743,1.342-1.338,2.128-1.784c0.528-0.547,1.212-1.066,2.057-1.56c0.843-0.494,1.756-0.901,2.739-1.222
		c0.984-0.321,2.008-0.541,3.073-0.663c1.064-0.121,2.06-0.101,2.985,0.06c0.213,0.062,0.33-0.001,0.354-0.189
		c0.022-0.188,0.117-0.29,0.282-0.305c2.073,0.051,3.947,0.289,5.623,0.71c1.674,0.421,3.134,1.091,4.381,2.007
		c0.895,1.157,1.758,2.409,2.589,3.759c0.831,1.349,1.515,2.775,2.05,4.276c0.535,1.501,0.859,3.075,0.974,4.719
		s-0.08,3.319-0.581,5.021c-1.266,1.941-2.872,3.552-4.82,4.832c-1.949,1.282-4.068,2.393-6.358,3.332
		c-2.291,0.942-4.677,1.757-7.156,2.446c-2.479,0.69-4.886,1.414-7.214,2.172c0.146,1.104,0.258,2.283,0.335,3.537
		c0.077,1.256,0.062,2.52-0.045,3.791c-0.108,1.274-0.32,2.525-0.639,3.756c-0.317,1.229-0.798,2.393-1.439,3.487
		c-0.825,0.036-1.669,0.198-2.53,0.487c-0.863,0.287-1.633,0.567-2.311,0.84c-0.349-0.176-0.684-0.34-1.01-0.495
		c-0.324-0.155-0.715-0.231-1.17-0.23c0.076-0.504-0.086-1.006-0.484-1.506c-0.398-0.501-0.797-0.989-1.193-1.471
		c-0.397-0.479-0.672-0.97-0.822-1.474c-0.151-0.504,0.041-0.988,0.576-1.452c-0.355-0.255-0.562-0.69-0.62-1.308
		c0.179,0.15,0.394,0.212,0.639,0.188c-0.152-0.73-0.144-1.62,0.027-2.673c0.169-1.049,0.299-2.085,0.389-3.108
		c0.09-1.022,0.033-1.948-0.169-2.777C236.975,80.221,236.425,79.661,235.529,79.375z M250.166,63.464
		c-0.121,0.468-0.217,0.881-0.287,1.237c-0.069,0.359-0.152,0.688-0.248,0.986c-0.096,0.3-0.202,0.6-0.318,0.899
		c-0.117,0.301-0.24,0.643-0.368,1.029c0.104,0.236,0.287,0.406,0.544,0.506c0.258,0.101,0.439,0.27,0.545,0.508
		c0.547-0.34,1.1-0.61,1.662-0.809c0.561-0.198,1.124-0.364,1.69-0.502c0.566-0.136,1.131-0.293,1.694-0.471
		c0.562-0.177,1.138-0.438,1.726-0.784c0.589-0.343,1.212-0.642,1.872-0.89s1.307-0.506,1.943-0.774
		c0.637-0.266,1.252-0.562,1.842-0.888c0.59-0.323,1.088-0.733,1.498-1.228c-0.625-0.478-1.531-0.868-2.719-1.171
		c-1.188-0.3-2.453-0.44-3.795-0.417c-1.344,0.024-2.668,0.242-3.974,0.655C252.168,61.765,251.064,62.469,250.166,63.464z"/>
	<path fill="#8641F2" d="M274.588,93.934c-0.609-0.314-1.115-0.742-1.518-1.284c-0.403-0.542-0.748-1.13-1.037-1.765
		c-0.286-0.635-0.536-1.304-0.748-2.009c-0.211-0.704-0.43-1.377-0.656-2.019c-0.055-0.572,0.029-1.005,0.25-1.296
		c0.221-0.289,0.464-0.571,0.727-0.845c0.98-0.133,1.854-0.299,2.623-0.496c0.768-0.196,1.515-0.391,2.242-0.584
		c0.727-0.193,1.454-0.376,2.183-0.549c0.729-0.171,1.523-0.298,2.386-0.379c0.494-1.33,0.953-2.605,1.377-3.824
		c0.422-1.22,0.829-2.385,1.221-3.499c0.148-1.049,0.376-2.032,0.684-2.952c0.306-0.917,0.605-1.795,0.9-2.629
		c0.293-0.836,0.545-1.666,0.757-2.494c0.211-0.826,0.315-1.693,0.312-2.605c0.357-1.482,0.672-2.847,0.948-4.094
		c0.275-1.247,0.437-2.72,0.482-4.422c-1.536,0.394-2.765,0.748-3.687,1.062c-0.923,0.315-1.579,0.594-1.969,0.838
		c-0.825,0.038-1.486-0.066-1.985-0.309s-0.911-0.555-1.237-0.938c-0.326-0.383-0.617-0.831-0.871-1.345
		c-0.256-0.514-0.556-1.044-0.896-1.591c0.129-0.385,0.119-0.932-0.03-1.643c-0.151-0.71-0.446-1.209-0.888-1.5
		c0.32-0.112,0.541-0.413,0.66-0.901c0.119-0.486,0.106-0.847-0.04-1.082c0.679-0.271,1.403-0.474,2.177-0.608
		c0.773-0.136,1.537-0.271,2.291-0.403c0.752-0.134,1.473-0.285,2.161-0.453c0.687-0.168,1.262-0.44,1.723-0.815
		c2.125-0.284,4.343-0.576,6.653-0.877c2.309-0.301,4.443-0.606,6.4-0.917c0.762,0.177,1.624,0.219,2.589,0.127
		c0.963-0.091,1.933-0.12,2.909-0.087c0.975,0.032,1.861,0.217,2.66,0.555c0.797,0.339,1.388,1.008,1.772,2.005
		c0.623,0.025,1.1,0.144,1.431,0.361c0.331,0.217,0.553,0.497,0.669,0.837c0.114,0.341,0.183,0.727,0.202,1.16
		c0.021,0.433,0.051,0.854,0.089,1.265c-0.609,0.554-1.403,1.032-2.379,1.435c-0.976,0.403-2.05,0.752-3.222,1.049
		c-1.173,0.297-2.401,0.539-3.688,0.721c-1.286,0.184-2.543,0.355-3.77,0.512c-0.078,1.373-0.287,2.997-0.627,4.871
		s-0.695,3.708-1.062,5.5c-0.369,1.795-0.683,3.397-0.941,4.808c-0.262,1.412-0.351,2.321-0.271,2.727
		c-0.322,0.982-0.585,1.814-0.789,2.495c-0.206,0.683-0.394,1.321-0.563,1.915c-0.172,0.598-0.344,1.182-0.518,1.757
		s-0.391,1.228-0.653,1.956l4.185-0.396c0.124,0.443,0.338,0.735,0.641,0.871c0.303,0.137,0.624,0.252,0.964,0.344
		s0.651,0.218,0.936,0.377c0.284,0.158,0.446,0.445,0.484,0.854c0.799,0.133,1.319,0.393,1.564,0.785
		c0.243,0.391,0.336,0.827,0.279,1.308c-0.059,0.481-0.218,0.981-0.479,1.505c-0.262,0.521-0.52,0.979-0.771,1.375
		c-0.377-0.047-0.718,0.078-1.021,0.376c-0.304,0.299-0.583,0.624-0.838,0.979c-1.206-0.051-2.377,0.039-3.513,0.27
		c-1.139,0.231-2.195,0.436-3.172,0.611c-0.201,0.06-0.271,0.18-0.214,0.36s0.03,0.319-0.085,0.412
		c-1.311-0.29-2.629-0.331-3.953-0.124c-1.326,0.209-2.662,0.531-4.006,0.971c-1.346,0.436-2.721,0.898-4.123,1.381
		C277.498,93.421,276.061,93.754,274.588,93.934z"/>
	<path fill="#8641F2" d="M307.183,84.769c-0.201,0.062-0.401-0.074-0.597-0.408c-0.198-0.333-0.414-0.653-0.65-0.964l0.677-0.063
		c-0.372-0.874-0.523-1.698-0.45-2.472c0.071-0.771,0.176-1.527,0.313-2.265c0.137-0.735,0.244-1.45,0.325-2.142
		c0.079-0.689-0.061-1.391-0.416-2.102c0.216,0.104,0.365,0.037,0.446-0.199c0.081-0.233,0.137-0.528,0.165-0.884
		c0.028-0.354,0.015-0.725-0.043-1.113c-0.058-0.387-0.119-0.703-0.183-0.944c0.413-1.322,0.709-2.676,0.889-4.057
		c0.18-1.384,0.33-2.753,0.45-4.11c0.12-1.355,0.275-2.674,0.465-3.955c0.188-1.28,0.478-2.498,0.865-3.651
		c0.566-0.137,1.178-0.121,1.836,0.044c0.656,0.166,1.103,0.403,1.339,0.711c1.178-1.104,2.194-2.4,3.047-3.889
		c0.854-1.487,1.718-2.945,2.598-4.373c0.879-1.428,1.905-2.715,3.081-3.861c1.174-1.146,2.695-1.909,4.563-2.293
		c1.05,0.604,2.228,1.248,3.534,1.931c1.307,0.685,2.405,1.584,3.298,2.699c0.347,0.175,0.686,0.361,1.015,0.557
		c0.328,0.196,0.666,0.382,1.015,0.555l0.087,0.924c0.624,0.479,1.165,1.059,1.623,1.739c0.458,0.682,0.878,1.407,1.262,2.179
		c0.383,0.771,0.757,1.552,1.121,2.346c0.365,0.793,0.766,1.52,1.2,2.183c-0.06,0.254-0.07,0.473-0.031,0.655
		c0.038,0.183,0.097,0.364,0.176,0.542c0.079,0.179,0.149,0.38,0.212,0.601c0.062,0.223,0.108,0.497,0.14,0.825
		c0.042,2.19-0.501,4.01-1.625,5.461c-1.126,1.452-2.54,2.682-4.246,3.691c-1.704,1.01-3.534,1.907-5.487,2.691
		c-1.954,0.786-3.719,1.604-5.293,2.457c0.016,0.164,0.115,0.236,0.3,0.219c0.185-0.017,0.247,0.101,0.189,0.356
		c1.3,0.62,2.31,1.126,3.029,1.514s1.391,0.705,2.016,0.957c0.623,0.252,1.304,0.446,2.041,0.583
		c0.736,0.139,1.755,0.29,3.054,0.456c1.299,0.168,2.316,0.309,3.052,0.426c0.734,0.116,1.395,0.199,1.979,0.247
		c0.584,0.05,1.208,0.083,1.872,0.103c0.664,0.021,1.557,0.039,2.675,0.058c0.494,0.409,0.913,0.907,1.259,1.495
		c0.345,0.59,0.609,1.186,0.79,1.789c0.181,0.602,0.268,1.184,0.258,1.744c-0.009,0.559-0.142,1.018-0.397,1.372
		c0.056,0.161,0.176,0.222,0.358,0.183c0.183-0.037,0.378-0.044,0.588-0.023c-0.269,0.233-0.491,0.502-0.669,0.809
		c-0.179,0.306-0.356,0.612-0.533,0.919c-0.18,0.306-0.39,0.595-0.633,0.866c-0.244,0.271-0.568,0.447-0.975,0.527
		c-1.422,0.713-3.308,0.911-5.654,0.598c-2.349-0.317-5.37-0.984-9.066-2.001c-1.827-0.488-3.318-0.947-4.477-1.376
		c-1.157-0.429-2.171-0.861-3.04-1.296c-0.87-0.435-1.681-0.916-2.434-1.447c-0.754-0.527-1.621-1.16-2.601-1.896
		c-0.119,0.053-0.184,0.143-0.191,0.268c-0.01,0.125-0.073,0.214-0.192,0.266c-0.051,1.66-0.242,3.024-0.576,4.09
		c-0.334,1.066-0.86,2.172-1.58,3.315c-0.668-0.062-1.104,0.042-1.305,0.31c-0.203,0.268-0.459,0.519-0.767,0.756
		c-0.403,0.12-0.712,0.139-0.926,0.056c-0.216-0.083-0.411-0.179-0.586-0.286c-0.177-0.107-0.373-0.213-0.589-0.316
		c-0.218-0.104-0.55-0.113-0.996-0.029c-0.158-0.358-0.315-0.705-0.472-1.043c-0.155-0.336-0.499-0.459-1.027-0.369
		c0.088-0.379,0.098-0.701,0.033-0.963c-0.067-0.264-0.152-0.504-0.255-0.723c-0.104-0.217-0.197-0.447-0.282-0.688
		S307.091,85.11,307.183,84.769z M325.076,54.708c-0.46,0.831-0.988,1.594-1.584,2.292c-0.597,0.699-1.181,1.415-1.752,2.152
		c-0.572,0.737-1.066,1.528-1.482,2.375c-0.417,0.846-0.676,1.833-0.775,2.96c1.703-0.368,3.462-1.021,5.277-1.959
		c1.814-0.936,3.53-1.833,5.147-2.689c-0.35-1.499-0.998-2.668-1.946-3.51C327.012,55.488,326.051,54.948,325.076,54.708z"/>
	<path fill="#8641F2" d="M349.941,83.957c-0.359-0.297-0.633-0.663-0.817-1.103c-0.188-0.438-0.561-0.774-1.12-1.011
		c-0.141-0.607-0.32-1.306-0.539-2.091c-0.221-0.787-0.44-1.594-0.664-2.421s-0.404-1.658-0.546-2.494
		c-0.142-0.834-0.183-1.606-0.126-2.316c0.047-0.376,0.148-0.737,0.302-1.083s0.308-0.682,0.463-1.006
		c0.156-0.326,0.269-0.656,0.341-0.995c0.071-0.338,0.051-0.667-0.062-0.987c0.242-0.062,0.384-0.211,0.424-0.443
		c0.04-0.23,0.228-0.322,0.564-0.271c0.201-0.929,0.429-1.8,0.685-2.611c0.254-0.809,0.531-1.602,0.83-2.374
		c0.3-0.774,0.608-1.558,0.927-2.354c0.317-0.796,0.596-1.681,0.835-2.656c-0.76-0.589-1.328-1.249-1.708-1.979
		c-0.379-0.729-0.688-1.477-0.926-2.241c-0.238-0.764-0.436-1.542-0.593-2.334c-0.158-0.792-0.398-1.585-0.723-2.383
		c0.423-0.785,0.96-1.446,1.613-1.984c0.653-0.538,1.385-1,2.197-1.387c0.811-0.387,1.701-0.719,2.668-0.997
		c0.967-0.278,1.992-0.592,3.077-0.942c1.911-0.802,3.628-1.45,5.155-1.947c1.525-0.495,3.017-0.926,4.472-1.292
		c1.455-0.364,2.975-0.715,4.557-1.051c1.582-0.335,3.402-0.787,5.459-1.354c0.052,0.119,0.13,0.174,0.233,0.164
		c0.102-0.009,0.235-0.022,0.399-0.038c0.15,0.275,0.389,0.398,0.718,0.367c-0.012-0.124-0.033-0.234-0.062-0.336
		c-0.031-0.1-0.05-0.191-0.058-0.273c0.082-0.008,0.196,0.003,0.345,0.028c0.146,0.029,0.273,0.058,0.381,0.089
		c0.105,0.031,0.197,0.013,0.274-0.058c0.075-0.069,0.083-0.204,0.023-0.405c0.573,0.815,1.275,1.463,2.107,1.942
		c0.831,0.481,1.738,0.881,2.721,1.202c0.076,0.365,0.111,0.632,0.107,0.797c-0.006,0.166-0.022,0.323-0.049,0.471
		c-0.028,0.147-0.033,0.312-0.016,0.497c0.018,0.186,0.082,0.438,0.195,0.758c-0.552,1.17-1.219,2.103-2.001,2.796
		c-0.783,0.694-1.631,1.251-2.543,1.669c-0.913,0.417-1.884,0.757-2.914,1.021c-1.03,0.264-2.082,0.538-3.15,0.825
		c-1.07,0.287-2.143,0.648-3.22,1.081c-1.076,0.434-2.117,1.029-3.121,1.786c-0.34-0.093-0.643-0.115-0.906-0.071
		c-0.266,0.047-0.538,0.124-0.816,0.234c-0.279,0.109-0.59,0.221-0.931,0.336c-0.341,0.115-0.761,0.155-1.262,0.12
		c-0.301,0.317-0.66,0.558-1.079,0.723c-0.42,0.163-0.85,0.329-1.288,0.493c0.247,0.433,0.382,0.875,0.404,1.328
		c0.021,0.453,0.11,0.838,0.265,1.154c1.738,0.001,3.645-0.189,5.719-0.572c2.075-0.381,4.113-0.709,6.115-0.981
		c0.061,0.202,0.054,0.347-0.021,0.437s-0.102,0.237-0.082,0.442c0.393,0.21,0.77,0.486,1.133,0.823
		c0.363,0.339,0.735,0.667,1.117,0.981c0.381,0.317,0.768,0.571,1.158,0.761c0.391,0.191,0.83,0.242,1.318,0.154
		c0.243,0.391,0.428,0.808,0.553,1.251c0.125,0.444,0.107,0.921-0.051,1.432c-0.771,0.612-1.519,1.23-2.245,1.858
		c-0.728,0.627-1.49,1.207-2.289,1.737c-0.798,0.532-1.676,0.987-2.633,1.366c-0.957,0.381-2.013,0.605-3.165,0.672
		c-0.206,0.02-0.38,0.036-0.522,0.05c-0.145,0.014-0.326-0.052-0.546-0.196c-0.392,0.244-0.928,0.367-1.611,0.369
		c-0.683,0.002-1.24,0.127-1.671,0.375c-0.595-0.15-1.271-0.191-2.029-0.119c-0.76,0.071-1.435,0.033-2.028-0.118
		c-0.638,1.138-1.23,2.32-1.775,3.552c-0.546,1.23-1.003,2.526-1.371,3.885c1.704,0.087,3.109,0.059,4.214-0.088
		c1.103-0.145,2.142-0.326,3.114-0.543c0.973-0.215,1.977-0.436,3.011-0.656c1.034-0.222,2.312-0.383,3.834-0.486
		c0.979-0.59,2.126-1.039,3.442-1.35c1.315-0.311,2.529-0.705,3.644-1.183c0.422,0.083,0.793,0.286,1.113,0.608
		c0.32,0.321,0.629,0.645,0.93,0.967c0.299,0.324,0.604,0.596,0.915,0.814c0.31,0.219,0.687,0.266,1.131,0.142
		c0.224,0.187,0.381,0.42,0.47,0.7c0.088,0.281,0.175,0.542,0.26,0.783c0.085,0.24,0.195,0.426,0.332,0.557
		c0.137,0.133,0.366,0.163,0.691,0.091c-0.628,1.673-1.384,2.986-2.266,3.939c-0.883,0.952-1.907,1.722-3.072,2.308
		c-1.166,0.586-2.486,1.063-3.962,1.431c-1.478,0.367-3.121,0.802-4.937,1.304c-0.444,0.125-0.824,0.15-1.142,0.076
		c-0.316-0.072-0.641-0.094-0.968-0.062c-1.129,0.314-2.475,0.647-4.033,1.002c-1.561,0.354-3.143,0.586-4.746,0.696
		s-3.161,0.051-4.673-0.179C352.308,85.346,351.015,84.807,349.941,83.957z"/>
</g>
</svg>
