<?xml version="1.0" encoding="utf-8"?>
<!-- Generator: Adobe Illustrator 16.0.0, SVG Export Plug-In . SVG Version: 6.00 Build 0)  -->
<!DOCTYPE svg PUBLIC "-//W3C//DTD SVG 1.1//EN" "http://www.w3.org/Graphics/SVG/1.1/DTD/svg11.dtd">
<svg version="1.1" id="Layer_1" xmlns="http://www.w3.org/2000/svg" xmlns:xlink="http://www.w3.org/1999/xlink" x="0px" y="0px"
	 width="406.047px" height="130.029px" viewBox="0 0 406.047 130.029" enable-background="new 0 0 406.047 130.029"
	 xml:space="preserve">
<polygon fill="#8641F2" points="103.146,84.322 99.479,47.322 72.451,30.299 55.36,26.178 39.668,17.338 40.227,42.564 
	36.414,39.051 17.961,16.59 22.146,40.988 29.444,62.166 19.812,53.489 28.312,81.822 40.604,97.166 72.812,109.989 "/>
<polygon fill="#4A388E" points="68.862,100.545 92.524,80.129 80.381,76.613 65.944,56.051 40.323,58.027 42.224,83.834 "/>
<polygon fill="#9871E2" points="65.944,56.051 53.818,78.238 80.318,76.426 "/>
<polygon fill="#CC98F4" points="65.255,38.91 40.323,58.027 90.687,54.318 "/>
<polygon fill="#17283F" points="68.987,100.537 69.328,83.33 80.507,76.338 53.604,78.121 42.224,83.834 "/>
<polygon fill="#EBBBF2" points="65.252,38.881 66.038,56.133 90.687,54.318 "/>
<polygon fill="#CC98F4" points="90.63,53.799 79.944,76.488 92.507,80.426 "/>
<polygon fill="#B694ED" points="90.595,54.324 66.038,56.133 80.318,76.426 "/>
<polygon fill="#113C68" points="40.449,58.496 53.825,78.205 42.224,83.834 "/>
<polygon fill="#113C68" points="68.974,100.354 80.318,76.426 53.816,78.09 "/>
<text transform="matrix(1 -0.0023 0.0023 1 121.4424 54.7529)" fill="#FFFFFF" font-family="'Montserrat-Bold'" font-size="35.2521">RPG</text>
<text transform="matrix(0.9956 -0.0941 0.0941 0.9956 123.0908 107.5088)" fill="#8641F2" font-family="'PermanentMarker'" font-size="63.2857">INSPIRE</text>
</svg>
